<svg width="1253" height="1007" viewBox="0 0 1253 1007" fill="none" xmlns="http://www.w3.org/2000/svg">
<g filter="url(#filter0_d_126_21469)">
<path fill-rule="evenodd" clip-rule="evenodd" d="M1231.74 569.097C1249.43 586.788 1236.9 617.037 1211.88 617.037H989.737C982.289 617.037 975.146 619.996 969.879 625.262L696.489 898.652C685.522 909.619 667.741 909.619 656.774 898.652L383.384 625.262C378.118 619.996 370.975 617.037 363.527 617.037H140.139C115.12 617.037 102.59 586.788 120.282 569.096L656.153 33.2253C667.12 22.2582 684.901 22.2582 695.868 33.2253L1231.74 569.097ZM544.852 446.185C533.885 457.152 533.885 474.933 544.852 485.9L656.36 597.407C667.327 608.374 685.108 608.374 696.075 597.407L807.583 485.9C818.55 474.933 818.55 457.152 807.583 446.185L696.075 334.677C685.108 323.71 667.327 323.71 656.36 334.677L544.852 446.185Z" fill="white"/>
<path fill-rule="evenodd" clip-rule="evenodd" d="M1231.74 569.097C1249.43 586.788 1236.9 617.037 1211.88 617.037H989.737C982.289 617.037 975.146 619.996 969.879 625.262L696.489 898.652C685.522 909.619 667.741 909.619 656.774 898.652L383.384 625.262C378.118 619.996 370.975 617.037 363.527 617.037H140.139C115.12 617.037 102.59 586.788 120.282 569.096L656.153 33.2253C667.12 22.2582 684.901 22.2582 695.868 33.2253L1231.74 569.097ZM544.852 446.185C533.885 457.152 533.885 474.933 544.852 485.9L656.36 597.407C667.327 608.374 685.108 608.374 696.075 597.407L807.583 485.9C818.55 474.933 818.55 457.152 807.583 446.185L696.075 334.677C685.108 323.71 667.327 323.71 656.36 334.677L544.852 446.185Z" fill="url(#paint0_linear_126_21469)" fill-opacity="0.5"/>
<path d="M660.539 37.6113C669.084 29.0668 682.937 29.0668 691.481 37.6113L1227.35 573.482C1241.14 587.266 1231.37 610.834 1211.88 610.834H989.737C980.644 610.834 971.923 614.446 965.493 620.876L692.103 894.266C683.559 902.81 669.705 902.81 661.16 894.266L387.77 620.876C381.341 614.446 372.619 610.834 363.526 610.834H140.139C120.646 610.834 110.884 587.266 124.668 573.482L660.539 37.6113ZM700.461 330.291C687.072 316.902 665.363 316.902 651.974 330.291L540.466 441.799C527.077 455.188 527.077 476.897 540.466 490.286L651.974 601.794C665.363 615.183 687.072 615.183 700.461 601.794L811.969 490.286C825.358 476.897 825.358 455.188 811.969 441.799L700.461 330.291Z" stroke="url(#paint1_linear_126_21469)" stroke-width="12.4055"/>
</g>
<defs>
<filter id="filter0_d_126_21469" x="0.350689" y="0.189045" width="1252.08" height="1005.93" filterUnits="userSpaceOnUse" color-interpolation-filters="sRGB">
<feFlood flood-opacity="0" result="BackgroundImageFix"/>
<feColorMatrix in="SourceAlpha" type="matrix" values="0 0 0 0 0 0 0 0 0 0 0 0 0 0 0 0 0 0 127 0" result="hardAlpha"/>
<feOffset dx="-49.6219" dy="37.2164"/>
<feGaussianBlur stdDeviation="31.0137"/>
<feComposite in2="hardAlpha" operator="out"/>
<feColorMatrix type="matrix" values="0 0 0 0 0 0 0 0 0 0 0 0 0 0 0 0 0 0 0.3 0"/>
<feBlend mode="normal" in2="BackgroundImageFix" result="effect1_dropShadow_126_21469"/>
<feBlend mode="normal" in="SourceGraphic" in2="effect1_dropShadow_126_21469" result="shape"/>
</filter>
<linearGradient id="paint0_linear_126_21469" x1="1239.66" y1="604.336" x2="112" y2="588.209" gradientUnits="userSpaceOnUse">
<stop stop-color="#1F266B"/>
<stop offset="0.0001" stop-color="#C8ACF0"/>
<stop offset="0.504808" stop-color="white"/>
<stop offset="0.9999" stop-color="#9DD4F5"/>
<stop offset="1" stop-color="#1F266B"/>
</linearGradient>
<linearGradient id="paint1_linear_126_21469" x1="1279.14" y1="616.496" x2="351.381" y2="1125.57" gradientUnits="userSpaceOnUse">
<stop stop-color="white"/>
<stop offset="0.25" stop-color="white" stop-opacity="0.5"/>
<stop offset="0.75" stop-color="white" stop-opacity="0.5"/>
<stop offset="1" stop-color="white"/>
</linearGradient>
</defs>
</svg>
