<svg width="260" height="40" viewBox="0 0 260 40" fill="none" xmlns="http://www.w3.org/2000/svg">
<g filter="url(#filter0_d_280_1324)">
<path fill-rule="evenodd" clip-rule="evenodd" d="M43.0917 23.5093C43.6935 24.1111 43.2673 25.1401 42.4161 25.1401H34.8592C34.6058 25.1401 34.3628 25.2408 34.1836 25.4199L24.8834 34.7202C24.5103 35.0933 23.9054 35.0933 23.5323 34.7202L14.232 25.4199C14.0529 25.2408 13.8099 25.1401 13.5565 25.1401H5.95725C5.10614 25.1401 4.6799 24.1111 5.28172 23.5093L23.5112 5.27981C23.8843 4.90673 24.4891 4.90673 24.8622 5.27981L43.0917 23.5093ZM19.7249 19.328C19.3518 19.7011 19.3518 20.306 19.7249 20.679L23.5182 24.4723C23.8913 24.8454 24.4962 24.8454 24.8693 24.4724L28.6626 20.679C29.0356 20.306 29.0356 19.7011 28.6626 19.328L24.8693 15.5347C24.4962 15.1616 23.8913 15.1616 23.5182 15.5347L19.7249 19.328Z" fill="white"/>
<path fill-rule="evenodd" clip-rule="evenodd" d="M43.0917 23.5093C43.6935 24.1111 43.2673 25.1401 42.4161 25.1401H34.8592C34.6058 25.1401 34.3628 25.2408 34.1836 25.4199L24.8834 34.7202C24.5103 35.0933 23.9054 35.0933 23.5323 34.7202L14.232 25.4199C14.0529 25.2408 13.8099 25.1401 13.5565 25.1401H5.95725C5.10614 25.1401 4.6799 24.1111 5.28172 23.5093L23.5112 5.27981C23.8843 4.90673 24.4891 4.90673 24.8622 5.27981L43.0917 23.5093ZM19.7249 19.328C19.3518 19.7011 19.3518 20.306 19.7249 20.679L23.5182 24.4723C23.8913 24.8454 24.4962 24.8454 24.8693 24.4724L28.6626 20.679C29.0356 20.306 29.0356 19.7011 28.6626 19.328L24.8693 15.5347C24.4962 15.1616 23.8913 15.1616 23.5182 15.5347L19.7249 19.328Z" fill="url(#paint0_linear_280_1324)"/>
</g>
<path d="M56.3918 5H59.588V24.6126C59.588 24.9758 59.6485 25.23 59.7696 25.3753C59.8906 25.4964 60.1328 25.5569 60.496 25.5569H61.7671V28.3535H60.496C58.9948 28.3535 57.9294 28.0872 57.2998 27.5545C56.6945 27.0218 56.3918 26.0412 56.3918 24.6126V5Z" fill="white"/>
<path d="M63.1476 22.2881C63.4381 21.7312 63.8013 21.2591 64.2372 20.8717C64.6972 20.4843 65.2783 20.1332 65.9805 19.8184C66.6827 19.5036 67.3364 19.2615 67.9418 19.092C68.5471 18.8983 69.2493 18.7288 70.0483 18.5835C70.8715 18.414 71.5132 18.3051 71.9732 18.2567C72.4575 18.2082 73.0265 18.1477 73.6803 18.0751C74.3582 18.0024 74.7335 17.9661 74.8062 17.9661C74.8062 15.4479 73.5592 14.1889 71.0653 14.1889C70.3146 14.1889 69.6609 14.2736 69.104 14.4431C68.5471 14.6126 68.1355 14.8184 67.8691 15.0605C67.627 15.3027 67.4333 15.5448 67.288 15.7869C67.1427 16.0291 67.058 16.2349 67.0338 16.4044V16.6586H63.5108C63.5108 16.5133 63.5229 16.3317 63.5471 16.1138C63.5955 15.8959 63.7529 15.4964 64.0192 14.9153C64.2856 14.3341 64.6609 13.8257 65.1452 13.3898C65.6294 12.954 66.3921 12.5545 67.4333 12.1913C68.4745 11.8281 69.6972 11.6465 71.1016 11.6465C73.4502 11.6465 75.1815 12.2034 76.2953 13.3172C77.4333 14.431 78.0023 15.9322 78.0023 17.8208V24.6126C78.0023 24.9758 78.0628 25.23 78.1839 25.3753C78.305 25.4964 78.5471 25.5569 78.9103 25.5569H80.0725V28.3535H78.8377C77.6028 28.3535 76.6827 28.184 76.0774 27.845C75.472 27.4818 75.0846 26.8523 74.9151 25.9564C73.5108 27.7966 71.3921 28.7167 68.5592 28.7167C66.6706 28.7167 65.2178 28.293 64.2008 27.4455C63.1839 26.5981 62.6754 25.4964 62.6754 24.1404C62.6754 23.4867 62.8328 22.8692 63.1476 22.2881ZM66.8522 25.6295C67.3849 25.9685 68.0628 26.138 68.8861 26.138C70.2904 26.138 71.6222 25.7506 72.8812 24.9758C74.1645 24.1768 74.8062 23.1961 74.8062 22.0339V20.4358C71.2226 20.7506 68.8013 21.2712 67.5422 21.9976C66.5495 22.5787 66.0531 23.293 66.0531 24.1404C66.0531 24.7942 66.3195 25.2906 66.8522 25.6295Z" fill="white"/>
<path d="M80.9289 21.1622V12.0097H84.125V21.1622C84.125 24.3826 85.4567 25.9927 88.1201 25.9927C91.2678 25.9927 92.8417 24.1404 92.8417 20.4358V12.0097H96.0378V28.3535H92.9507V25.6659C92.5148 26.5375 91.8611 27.2639 90.9894 27.845C90.1419 28.4262 89.1492 28.7167 88.0112 28.7167C83.2896 28.7167 80.9289 26.1985 80.9289 21.1622Z" fill="white"/>
<path d="M101.312 12.0097V14.661C101.748 13.7409 102.414 13.0145 103.309 12.4818C104.205 11.9492 105.222 11.6707 106.36 11.6465C106.457 11.6465 106.554 11.6465 106.651 11.6465C109.024 11.6465 110.791 12.276 111.953 13.5351C113.116 14.77 113.697 16.6828 113.697 19.2736V28.3535H110.501V19.2736C110.501 17.5061 110.174 16.2591 109.52 15.5327C108.891 14.7821 107.861 14.3947 106.433 14.3705C106.384 14.3705 106.336 14.3705 106.288 14.3705C104.714 14.3705 103.503 14.8184 102.656 15.7143C101.832 16.586 101.421 18.1114 101.421 20.2906V28.3535H98.2247V12.0097H101.312Z" fill="white"/>
<path d="M117.328 13.9709C118.878 12.4213 120.972 11.6465 123.611 11.6465C124.967 11.6465 126.154 11.8281 127.171 12.1913C128.212 12.5545 128.987 13.0024 129.495 13.5351C130.003 14.0436 130.415 14.5642 130.73 15.0969C131.045 15.6053 131.238 16.0412 131.311 16.4044L131.384 16.9492H127.861C127.836 16.8765 127.8 16.7797 127.752 16.6586C127.727 16.5375 127.606 16.3196 127.388 16.0048C127.195 15.6659 126.953 15.3753 126.662 15.1332C126.396 14.891 125.984 14.6731 125.427 14.4794C124.895 14.2857 124.289 14.1889 123.611 14.1889C121.941 14.1889 120.633 14.7579 119.689 15.8959C118.769 17.0097 118.309 18.414 118.309 20.109C118.309 21.8039 118.781 23.2446 119.725 24.431C120.669 25.5932 121.965 26.1743 123.611 26.1743C124.701 26.1743 125.597 25.8959 126.299 25.339C127.001 24.7579 127.437 24.1889 127.606 23.632L127.861 22.7603H131.384C131.359 22.9298 131.323 23.1477 131.275 23.414C131.226 23.6804 131.033 24.1525 130.694 24.8305C130.379 25.5085 129.967 26.1138 129.459 26.6465C128.95 27.1792 128.175 27.6634 127.134 28.0993C126.117 28.5109 124.943 28.7167 123.611 28.7167C120.924 28.7167 118.805 27.954 117.255 26.4286C115.73 24.8789 114.967 22.7724 114.967 20.109C114.967 17.5908 115.754 15.5448 117.328 13.9709Z" fill="white"/>
<path d="M132.843 5H136.039V14.4431C136.499 13.5956 137.165 12.9298 138.037 12.4455C138.909 11.937 139.889 11.6707 140.979 11.6465C141.076 11.6465 141.173 11.6465 141.269 11.6465C143.642 11.6465 145.41 12.276 146.572 13.5351C147.734 14.77 148.315 16.6828 148.315 19.2736V28.3535H145.119V19.2736C145.119 17.5061 144.792 16.2591 144.139 15.5327C143.509 14.7821 142.48 14.3947 141.051 14.3705C141.003 14.3705 140.955 14.3705 140.906 14.3705C139.332 14.3705 138.122 14.8184 137.274 15.7143C136.451 16.586 136.039 18.1114 136.039 20.2906V28.3535H132.843V5Z" fill="white"/>
<path d="M150.312 12.0097H153.399V14.1889C154.9 12.4939 156.777 11.6465 159.029 11.6465C161.765 11.6465 163.871 12.4455 165.348 14.0436C166.825 15.6174 167.564 17.6998 167.564 20.2906C167.564 22.8814 166.801 24.9395 165.276 26.4649C163.775 27.9661 161.741 28.7167 159.174 28.7167C159.029 28.7167 158.871 28.7167 158.702 28.7167C156.668 28.6441 154.937 27.8208 153.508 26.247V35H150.312V12.0097ZM153.399 20.1816C153.399 21.8765 153.871 23.293 154.816 24.431C155.736 25.5932 157.019 26.1743 158.666 26.1743C160.312 26.1743 161.656 25.6053 162.697 24.4673C163.738 23.3293 164.259 21.937 164.259 20.2906C164.259 18.4746 163.75 17.0097 162.733 15.8959C161.741 14.7579 160.385 14.1889 158.666 14.1889C156.995 14.1889 155.7 14.7458 154.779 15.8596C153.859 16.9492 153.399 18.3898 153.399 20.1816Z" fill="white"/>
<path d="M168.954 22.2881C169.245 21.7312 169.608 21.2591 170.044 20.8717C170.504 20.4843 171.085 20.1332 171.787 19.8184C172.489 19.5036 173.143 19.2615 173.748 19.092C174.353 18.8983 175.056 18.7288 175.855 18.5835C176.678 18.414 177.32 18.3051 177.78 18.2567C178.264 18.2082 178.833 18.1477 179.487 18.0751C180.165 18.0024 180.54 17.9661 180.613 17.9661C180.613 15.4479 179.366 14.1889 176.872 14.1889C176.121 14.1889 175.467 14.2736 174.91 14.4431C174.354 14.6126 173.942 14.8184 173.676 15.0605C173.433 15.3027 173.24 15.5448 173.094 15.7869C172.949 16.0291 172.864 16.2349 172.84 16.4044V16.6586H169.317C169.317 16.5133 169.329 16.3317 169.353 16.1138C169.402 15.8959 169.559 15.4964 169.826 14.9153C170.092 14.3341 170.467 13.8257 170.952 13.3898C171.436 12.954 172.199 12.5545 173.24 12.1913C174.281 11.8281 175.504 11.6465 176.908 11.6465C179.257 11.6465 180.988 12.2034 182.102 13.3172C183.24 14.431 183.809 15.9322 183.809 17.8208V24.6126C183.809 24.9758 183.869 25.23 183.99 25.3753C184.111 25.4964 184.353 25.5569 184.717 25.5569H185.879V28.3535H184.644C183.409 28.3535 182.489 28.184 181.884 27.845C181.278 27.4818 180.891 26.8523 180.722 25.9564C179.317 27.7966 177.199 28.7167 174.366 28.7167C172.477 28.7167 171.024 28.293 170.007 27.4455C168.99 26.5981 168.482 25.4964 168.482 24.1404C168.482 23.4867 168.639 22.8692 168.954 22.2881ZM172.659 25.6295C173.191 25.9685 173.869 26.138 174.692 26.138C176.097 26.138 177.429 25.7506 178.688 24.9758C179.971 24.1768 180.613 23.1961 180.613 22.0339V20.4358C177.029 20.7506 174.608 21.2712 173.349 21.9976C172.356 22.5787 171.86 23.293 171.86 24.1404C171.86 24.7942 172.126 25.2906 172.659 25.6295Z" fill="white"/>
<path d="M185.942 20.2906C185.942 17.6998 186.681 15.6174 188.158 14.0436C189.635 12.4455 191.741 11.6465 194.477 11.6465C196.632 11.6465 198.472 12.4455 199.998 14.0436V5H203.194V28.3535H200.107V26.138C198.702 27.7845 196.935 28.6441 194.804 28.7167C194.635 28.7167 194.477 28.7167 194.332 28.7167C191.765 28.7167 189.719 27.9661 188.194 26.4649C186.693 24.9395 185.942 22.8814 185.942 20.2906ZM189.247 20.2906C189.247 21.937 189.768 23.3293 190.809 24.4673C191.85 25.6053 193.194 26.1743 194.84 26.1743C196.487 26.1743 197.77 25.6053 198.69 24.4673C199.635 23.3051 200.107 21.8765 200.107 20.1816C200.107 18.3898 199.647 16.9492 198.727 15.8596C197.807 14.7458 196.511 14.1889 194.84 14.1889C193.121 14.1889 191.753 14.7579 190.736 15.8959C189.744 17.0097 189.247 18.4746 189.247 20.2906Z" fill="white"/>
<path d="M207.635 27.7051C207.635 27.4435 207.72 27.2281 207.889 27.0589C208.074 26.8743 208.289 26.7819 208.536 26.7819C208.797 26.7819 209.013 26.8743 209.182 27.0589C209.366 27.2281 209.459 27.4435 209.459 27.7051C209.459 27.9512 209.366 28.1666 209.182 28.3513C209.013 28.5205 208.797 28.6051 208.536 28.6051C208.289 28.6051 208.074 28.5205 207.889 28.3513C207.72 28.1666 207.635 27.9512 207.635 27.7051Z" fill="white"/>
<path d="M210.241 18.1045H212.11V15.0582H213.172V18.1045H216.541V19.0276H213.172V26.805C213.172 27.0974 213.218 27.2974 213.31 27.4051C213.403 27.5128 213.587 27.5666 213.864 27.5666H216.403V28.4897H213.864C213.218 28.4897 212.764 28.3743 212.503 28.1436C212.241 27.8974 212.11 27.4512 212.11 26.805V19.0276H210.241V18.1045Z" fill="white"/>
<path d="M219.072 18.1045L219.095 20.4585C219.649 18.8892 220.711 18.1045 222.28 18.1045H224.149V19.0276H222.303C221.072 19.0276 220.234 19.5046 219.788 20.4585C219.357 21.397 219.141 22.8509 219.141 24.8203V28.4897H218.08V18.1045H219.072Z" fill="white"/>
<path d="M225.169 24.3587C225.539 23.8972 225.985 23.5433 226.508 23.2971C227.031 23.0356 227.67 22.8125 228.423 22.6279C229.193 22.4278 229.831 22.2971 230.339 22.2355C230.862 22.174 231.431 22.1201 232.047 22.074L232.97 22.0047C232.955 20.8508 232.701 20.02 232.208 19.5123C231.716 18.9892 230.87 18.7276 229.67 18.7276C229.054 18.7276 228.516 18.8045 228.054 18.9584C227.608 19.1123 227.277 19.3046 227.062 19.5354C226.862 19.7508 226.7 19.9738 226.577 20.2046C226.469 20.4354 226.408 20.6277 226.393 20.7816L226.369 21.0124H225.262C225.262 20.9201 225.269 20.8047 225.285 20.6662C225.3 20.5277 225.385 20.2816 225.539 19.9277C225.693 19.5584 225.908 19.2353 226.185 18.9584C226.462 18.6815 226.9 18.4353 227.5 18.2199C228.116 17.9891 228.847 17.8737 229.693 17.8737C231.17 17.8737 232.262 18.2045 232.97 18.8661C233.678 19.5277 234.031 20.6047 234.031 22.0971V26.805C234.031 27.0974 234.078 27.2974 234.17 27.4051C234.262 27.5128 234.455 27.5666 234.747 27.5666H235.485V28.4897H234.747C234.085 28.4897 233.624 28.3743 233.362 28.1436C233.101 27.8974 232.97 27.4512 232.97 26.805V26.1819C232.539 26.9666 231.901 27.5897 231.054 28.0513C230.224 28.4974 229.308 28.7205 228.308 28.7205C227.154 28.7205 226.254 28.4744 225.608 27.982C224.962 27.4743 224.631 26.7973 224.616 25.9511C224.616 25.9357 224.616 25.9127 224.616 25.8819C224.616 25.3126 224.8 24.8049 225.169 24.3587ZM225.746 25.9511C225.793 26.5973 226.062 27.082 226.554 27.4051C227.046 27.7128 227.639 27.8666 228.331 27.8666C228.362 27.8666 228.393 27.8666 228.423 27.8666C229.562 27.8512 230.601 27.4974 231.539 26.805C232.493 26.0973 232.97 25.1818 232.97 24.0587V22.8586C232.354 22.874 231.739 22.9202 231.124 22.9971C230.508 23.0586 229.731 23.1894 228.793 23.3894C227.854 23.5741 227.108 23.8818 226.554 24.3126C226.016 24.7434 225.746 25.2588 225.746 25.8588C225.746 25.8896 225.746 25.9204 225.746 25.9511Z" fill="white"/>
<path d="M237.55 19.3738C238.535 18.3738 239.866 17.8737 241.543 17.8737C243.481 17.8737 244.912 18.643 245.835 20.1816V13.6504H246.897V28.4897H245.881V26.3204C244.958 27.8897 243.527 28.6898 241.589 28.7205C241.543 28.7205 241.489 28.7205 241.427 28.7205C239.796 28.7205 238.496 28.2359 237.527 27.2666C236.558 26.2819 236.073 24.9665 236.073 23.3202C236.073 21.7047 236.565 20.3893 237.55 19.3738ZM237.181 23.3202C237.181 24.7357 237.581 25.8434 238.381 26.6435C239.181 27.4281 240.25 27.8205 241.589 27.8205C242.943 27.8205 243.997 27.4051 244.75 26.5742C245.504 25.728 245.881 24.6434 245.881 23.3202C245.881 21.9817 245.504 20.8893 244.75 20.0431C243.997 19.1969 242.943 18.7738 241.589 18.7738C240.281 18.7738 239.219 19.1661 238.404 19.9508C237.588 20.7354 237.181 21.8586 237.181 23.3202Z" fill="white"/>
<path d="M248.751 23.3202C248.751 21.7201 249.22 20.4123 250.159 19.3969C251.097 18.3814 252.374 17.8737 253.99 17.8737C254.943 17.8737 255.767 18.0507 256.459 18.4045C257.151 18.743 257.667 19.1507 258.005 19.6277C258.344 20.1046 258.605 20.6354 258.79 21.2201C258.974 21.8047 259.074 22.2432 259.09 22.5355C259.121 22.8125 259.136 23.0279 259.136 23.1817C259.136 23.3356 259.128 23.4817 259.113 23.6202H249.835C249.866 24.8664 250.228 25.8819 250.92 26.6666C251.612 27.4358 252.636 27.8205 253.99 27.8205C254.59 27.8205 255.136 27.7358 255.628 27.5666C256.12 27.382 256.497 27.1666 256.759 26.9204C257.02 26.6742 257.236 26.4281 257.405 26.1819C257.59 25.9204 257.705 25.705 257.751 25.5357L257.844 25.2588H258.951C258.936 25.3511 258.905 25.4742 258.859 25.628C258.813 25.7819 258.674 26.0588 258.444 26.4588C258.213 26.8589 257.928 27.2127 257.59 27.5205C257.267 27.8282 256.782 28.1051 256.136 28.3513C255.505 28.5974 254.79 28.7205 253.99 28.7205C252.374 28.7205 251.097 28.2359 250.159 27.2666C249.22 26.2973 248.751 24.9818 248.751 23.3202ZM258.051 22.7202C258.051 22.674 258.051 22.6355 258.051 22.6048C258.051 22.0201 257.936 21.4509 257.705 20.897C257.49 20.3431 257.059 19.8508 256.413 19.42C255.767 18.9892 254.959 18.7738 253.99 18.7738C252.682 18.7738 251.674 19.1738 250.966 19.9738C250.274 20.7585 249.897 21.6739 249.835 22.7202H258.051Z" fill="white"/>
<defs>
<filter id="filter0_d_280_1324" x="0.175549" y="0.175549" width="48.0222" height="39.6489" filterUnits="userSpaceOnUse" color-interpolation-filters="sRGB">
<feFlood flood-opacity="0" result="BackgroundImageFix"/>
<feColorMatrix in="SourceAlpha" type="matrix" values="0 0 0 0 0 0 0 0 0 0 0 0 0 0 0 0 0 0 127 0" result="hardAlpha"/>
<feOffset/>
<feGaussianBlur stdDeviation="2.41223"/>
<feComposite in2="hardAlpha" operator="out"/>
<feColorMatrix type="matrix" values="0 0 0 0 0.533333 0 0 0 0 0.431373 0 0 0 0 0.996078 0 0 0 0.5 0"/>
<feBlend mode="normal" in2="BackgroundImageFix" result="effect1_dropShadow_280_1324"/>
<feBlend mode="normal" in="SourceGraphic" in2="effect1_dropShadow_280_1324" result="shape"/>
</filter>
<linearGradient id="paint0_linear_280_1324" x1="43.3609" y1="4.00505" x2="12.8316" y2="33.7489" gradientUnits="userSpaceOnUse">
<stop offset="0.125" stop-color="white"/>
<stop offset="1" stop-color="#886EFE"/>
</linearGradient>
</defs>
</svg>
